<svg xmlns="http://www.w3.org/2000/svg" xmlns:xlink="http://www.w3.org/1999/xlink" preserveAspectRatio="xMidYMid" width="2112" height="686" viewBox="0 0 2112 686">
  <defs>
    <style>
      .cls-1 {
        fill: #b20838;
      }

      .cls-2 {
        fill: #008fcc;
      }

      .cls-3, .cls-4 {
        fill: #005e7f;
      }

      .cls-4, .cls-5 {
        fill-rule: evenodd;
      }

      .cls-5 {
        fill: #004767;
      }
    </style>
  </defs>
  <g>
    <rect x="913" y="262" width="60" height="111" rx="5" ry="5" class="cls-1"/>
    <rect x="1014" y="121" width="60" height="252" rx="5" ry="5" class="cls-2"/>
    <rect x="1115" width="60" height="373" rx="5" ry="5" class="cls-3"/>
  </g>
  <path d="M835.088,520.014 L835.088,662.985 L821.937,662.985 L821.937,520.000 L760.937,520.000 L760.951,508.899 L896.098,508.969 L896.098,520.014 L835.088,520.014 ZM645.088,577.967 L728.010,577.967 L728.010,589.034 L645.088,589.034 L645.088,662.985 L631.937,662.985 L631.937,508.969 L729.098,508.969 L729.098,520.014 L645.088,520.014 L645.088,577.967 ZM574.864,508.969 L587.145,508.969 L587.145,663.044 L574.864,663.044 L574.864,508.969 ZM431.937,508.015 L445.088,508.015 L445.088,650.986 L529.098,650.986 L529.098,662.031 L431.937,662.031 L431.937,508.015 Z" class="cls-4"/>
  <path d="M1610.879,534.866 C1598.505,534.866 1589.352,541.360 1589.352,550.641 C1589.352,562.430 1607.181,565.153 1625.000,569.000 C1677.770,580.431 1677.940,607.649 1677.940,616.736 C1677.940,649.688 1648.536,669.661 1603.765,664.828 C1587.409,663.062 1565.927,656.901 1551.272,641.047 L1568.606,616.842 C1577.653,623.789 1591.607,636.997 1616.963,636.997 C1631.305,636.997 1642.860,631.060 1644.214,620.318 C1645.881,607.100 1623.782,602.959 1598.264,597.508 C1590.051,595.793 1555.898,585.543 1555.898,554.695 C1555.898,541.057 1562.520,526.501 1571.766,518.697 C1581.010,510.893 1594.122,506.825 1610.433,506.825 C1626.470,506.825 1656.904,508.913 1673.000,528.000 L1656.000,551.000 C1640.349,538.452 1621.284,534.866 1610.879,534.866 ZM1472.905,637.286 C1483.730,637.286 1499.853,628.290 1508.000,615.000 L1535.000,628.000 C1517.470,661.898 1485.454,665.494 1469.846,665.494 C1424.992,665.494 1389.561,637.407 1389.561,586.507 C1389.561,511.968 1456.250,506.000 1473.000,506.000 C1489.750,506.000 1519.383,514.385 1535.000,543.000 L1508.000,557.000 C1504.074,547.266 1486.924,535.200 1472.905,535.200 C1448.298,535.200 1422.202,552.341 1422.202,586.717 C1422.202,619.097 1447.102,637.286 1472.905,637.286 ZM1326.981,508.956 L1360.048,508.956 L1360.048,663.052 L1326.981,663.052 L1326.981,508.956 ZM1255.014,663.052 L1223.010,663.052 L1223.010,536.998 L1176.998,536.998 L1176.998,509.019 L1299.985,509.019 L1299.985,536.998 L1255.014,536.998 L1255.014,663.052 ZM1108.054,663.052 L1074.990,663.052 L1074.990,599.351 L1016.009,509.019 L1052.776,509.019 L1091.230,570.692 L1129.061,509.019 L1165.618,509.019 L1108.054,598.880 L1108.054,663.052 ZM1032.044,634.031 L1032.044,663.037 L934.983,663.037 L934.941,508.956 L967.050,508.956 L967.008,634.031 L1032.044,634.031 Z" class="cls-5"/>
</svg>
